<?xml version="1.0" standalone="no"?>
<!DOCTYPE svg PUBLIC "-//W3C//DTD SVG 20010904//EN"
 "http://www.w3.org/TR/2001/REC-SVG-20010904/DTD/svg10.dtd">
<svg version="1.0" xmlns="http://www.w3.org/2000/svg"
 width="108.000000pt" height="108.000000pt" viewBox="0 0 108.000000 108.000000"
 preserveAspectRatio="xMidYMid meet">
<metadata>
Created by potrace 1.14, written by Peter Selinger 2001-2017
</metadata>
<g transform="translate(0.000000,108.000000) scale(0.100000,-0.100000)"
fill="#000000" stroke="none">
<path d="M222 918 c28 -21 38 -107 38 -327 -1 -235 -8 -286 -41 -313 -24 -18
-19 -18 231 -16 238 3 258 4 302 25 62 28 88 70 88 142 0 89 -48 144 -149 171
l-44 11 51 24 c65 30 92 71 92 140 0 60 -25 106 -72 132 -29 16 -65 18 -273
21 -199 3 -237 1 -223 -10z m325 -24 c32 -20 46 -76 41 -156 -6 -82 -29 -112
-90 -123 l-38 -7 0 157 0 157 33 -7 c17 -4 42 -13 54 -21z m24 -315 c32 -17
52 -76 51 -149 -1 -110 -26 -144 -115 -156 l-47 -7 0 168 0 168 45 -7 c25 -3
55 -11 66 -17z"/>
</g>
</svg>
