<?xml version="1.0" standalone="no"?>
<!DOCTYPE svg PUBLIC "-//W3C//DTD SVG 20010904//EN"
 "http://www.w3.org/TR/2001/REC-SVG-20010904/DTD/svg10.dtd">
<svg version="1.0" xmlns="http://www.w3.org/2000/svg"
 width="640.000000pt" height="640.000000pt" viewBox="0 0 640.000000 640.000000"
 preserveAspectRatio="xMidYMid meet">
<metadata>
Created by potrace 1.14, written by Peter Selinger 2001-2017
</metadata>
<g transform="translate(0.000000,640.000000) scale(0.100000,-0.100000)"
fill="#000000" stroke="none">
<path d="M1139 5755 c-3 -2 -14 -6 -25 -8 -45 -8 -104 -28 -116 -40 -7 -6 -28
-20 -46 -30 -58 -33 -105 -89 -227 -272 -66 -99 -122 -182 -125 -185 -3 -3
-26 -36 -50 -75 -25 -38 -53 -79 -62 -89 -10 -11 -18 -24 -18 -28 0 -5 -18
-33 -40 -63 -22 -30 -40 -56 -40 -59 0 -4 -88 -137 -107 -161 -53 -67 -254
-392 -266 -428 -26 -79 -17 -190 23 -270 52 -105 156 -184 268 -202 55 -9 262
-12 262 -4 0 3 19 3 43 0 23 -4 61 -4 85 -1 24 4 45 4 47 0 2 -3 29 -3 60 0
31 3 58 3 60 0 2 -4 24 -4 48 0 24 3 52 3 63 0 10 -4 32 -4 49 0 17 4 39 4 49
0 11 -3 38 -3 62 0 24 4 48 4 54 0 6 -4 29 -4 51 0 22 4 41 4 44 0 2 -4 25 -4
50 0 25 4 48 4 50 0 2 -3 29 -3 60 0 31 3 58 3 60 0 2 -4 25 -4 50 0 25 4 48
4 50 0 2 -4 25 -4 50 0 25 4 48 4 50 0 2 -3 29 -3 60 0 31 3 58 3 60 0 2 -4
25 -4 50 0 25 4 48 4 50 0 2 -4 25 -4 50 0 25 4 48 4 50 0 2 -3 29 -3 60 0 31
3 58 3 60 0 2 -4 25 -4 50 0 25 4 48 4 50 0 2 -4 25 -4 50 0 25 4 48 4 50 0 2
-3 29 -3 60 0 31 3 58 2 61 -2 3 -5 9 -6 14 -3 5 3 46 5 92 5 141 0 192 1 198
5 3 2 12 0 18 -4 7 -4 33 -5 57 -1 25 4 45 4 45 1 0 -3 50 -6 110 -6 61 0 110
3 110 6 0 3 19 3 43 -1 23 -3 56 -3 74 1 17 3 36 3 43 -1 6 -4 31 -4 55 0 25
4 45 4 45 1 0 -3 50 -6 110 -6 61 0 110 3 110 6 0 3 19 3 43 -1 23 -3 56 -3
74 1 17 3 36 3 43 -1 6 -4 31 -4 55 0 25 4 45 4 45 1 0 -3 50 -6 110 -6 61 0
110 3 110 6 0 3 19 3 43 -1 23 -3 56 -3 74 1 17 3 36 3 43 -1 6 -4 31 -4 55 0
25 4 45 4 45 1 0 -3 50 -6 110 -6 61 0 110 3 110 6 0 3 19 3 43 -1 23 -3 56
-3 74 1 17 3 36 3 43 -1 6 -4 31 -4 55 0 25 4 45 4 45 1 0 -3 50 -6 110 -6 61
0 110 3 110 6 0 3 19 3 43 -1 23 -3 56 -3 74 1 17 3 36 3 43 -1 6 -4 31 -4 55
0 25 4 45 4 45 1 0 -3 50 -6 110 -6 61 0 110 3 110 6 0 3 19 3 43 -1 23 -3 56
-3 74 1 17 3 37 3 43 -1 6 -4 29 -4 51 0 22 4 41 4 44 0 3 -4 22 -4 42 -1 21
4 49 4 63 1 14 -4 35 -3 46 1 12 4 24 5 27 2 6 -6 52 -6 127 1 120 9 239 94
295 211 49 99 42 262 -13 328 -8 9 -11 17 -6 17 5 0 4 4 -1 8 -6 4 -29 36 -52
72 -23 36 -55 83 -70 104 -15 22 -37 54 -48 72 -11 17 -47 72 -80 121 -33 48
-62 93 -64 98 -2 6 -20 33 -40 60 -20 28 -41 58 -46 67 -19 32 -148 223 -154
228 -4 3 -12 16 -19 30 -10 21 -64 102 -90 135 -4 6 -19 28 -32 50 -13 22 -26
42 -30 45 -3 3 -17 23 -32 45 -73 108 -168 179 -285 209 -51 14 -304 16 -2109
16 -1128 0 -2053 -2 -2055 -5z"/>
<path d="M678 3522 c-36 -3 -38 -5 -39 -40 -1 -20 0 -41 1 -47 1 -5 1 -35 0
-65 -1 -30 -1 -62 -1 -70 3 -58 1 -173 -4 -180 -3 -5 -2 -11 3 -14 4 -3 5 -30
2 -61 -3 -31 -3 -58 0 -60 4 -2 4 -25 0 -50 -4 -25 -4 -48 0 -50 4 -2 4 -25 0
-50 -4 -25 -4 -48 0 -50 3 -2 3 -29 0 -60 -3 -31 -2 -58 2 -61 5 -3 6 -10 2
-15 -7 -12 -7 -215 0 -228 4 -5 2 -12 -2 -15 -5 -3 -6 -26 -2 -51 4 -25 4 -45
1 -45 -3 0 -5 -26 -4 -57 2 -32 3 -78 2 -103 0 -25 0 -54 1 -65 1 -11 1 -27 1
-35 -2 -69 0 -113 4 -121 4 -5 3 -9 -2 -9 -4 0 -7 -26 -5 -57 1 -32 2 -71 2
-88 -1 -16 -1 -37 -1 -45 1 -40 0 -110 -2 -158 -1 -28 0 -52 3 -52 3 0 4 -28
2 -62 -2 -60 -2 -93 -1 -198 0 -25 0 -49 -1 -55 -4 -24 5 -158 13 -195 13 -52
24 -81 53 -130 60 -103 155 -179 273 -218 63 -21 66 -22 1240 -22 1125 0 1265
3 1306 28 6 4 15 7 21 8 22 3 119 72 157 110 102 103 143 228 136 417 -1 6 0
56 1 109 1 53 -1 101 -4 107 -4 5 -2 12 2 15 5 3 6 26 2 51 -4 25 -4 45 -1 45
3 0 5 26 4 57 -2 32 -3 78 -2 103 0 25 0 54 -1 65 -1 11 -1 27 -1 35 2 69 0
113 -4 121 -4 5 -3 9 2 9 4 0 8 23 8 50 0 28 -4 50 -8 50 -5 0 -5 4 -2 10 5 8
6 49 4 130 0 8 0 31 0 50 1 39 1 53 0 125 0 28 0 59 1 70 2 27 2 34 1 80 -1
22 0 66 1 98 2 31 0 57 -3 57 -3 0 -3 20 1 45 4 25 3 48 -2 51 -4 3 -6 10 -3
15 4 5 6 30 5 56 -1 51 -1 75 1 96 0 6 0 32 0 57 -1 25 0 71 1 103 2 31 0 57
-3 57 -3 0 -3 23 1 50 4 28 2 50 -2 50 -5 0 -7 4 -3 9 3 5 5 34 5 63 0 29 0
64 1 78 0 14 1 32 0 40 0 8 -1 36 -1 62 -1 45 -12 68 -24 50 -3 -5 -26 -6 -51
-2 -25 4 -48 4 -50 0 -2 -3 -29 -3 -60 0 -30 3 -58 4 -60 2 -4 -4 -101 -4
-253 1 -28 1 -52 -1 -52 -4 0 -3 -19 -3 -43 1 l-43 6 -3 -40 c-1 -22 -4 -43
-7 -47 -2 -4 -1 -10 4 -13 4 -3 5 -30 2 -61 -3 -31 -2 -58 2 -61 5 -3 6 -9 3
-14 -5 -8 -6 -65 -5 -195 1 -11 0 -44 0 -73 0 -29 2 -57 5 -62 3 -6 3 -10 -2
-10 -4 0 -8 -49 -8 -110 0 -60 3 -110 6 -110 3 0 3 -20 -1 -45 -4 -24 -4 -49
0 -55 4 -7 4 -26 1 -43 -4 -18 -4 -51 -1 -74 4 -24 4 -43 1 -43 -3 0 -6 -49
-6 -110 0 -60 3 -110 6 -110 3 0 3 -20 -1 -45 -4 -24 -4 -49 0 -55 3 -6 4 -32
0 -58 -3 -26 -3 -58 0 -71 3 -13 4 -40 2 -61 -3 -33 -8 -39 -33 -42 -16 -3
-31 -2 -34 0 -8 8 -95 7 -95 -1 0 -5 -4 -6 -9 -3 -10 6 -79 8 -169 4 -34 -2
-62 -1 -62 2 0 3 -24 4 -52 3 -29 -1 -62 -3 -73 -3 -11 -1 -59 0 -107 0 -48 1
-91 -1 -97 -4 -5 -4 -12 -3 -15 2 -3 4 -30 5 -61 2 -31 -3 -58 -3 -60 0 -2 4
-25 4 -50 0 -25 -4 -48 -4 -50 0 -2 4 -25 4 -50 0 -25 -4 -48 -4 -50 0 -2 3
-29 3 -60 0 -31 -3 -58 -2 -61 2 -3 5 -9 6 -14 3 -5 -3 -46 -5 -92 -5 -141 0
-192 -1 -198 -5 -3 -2 -12 0 -19 4 -7 5 -30 5 -51 1 -22 -4 -41 -5 -44 -3 -8
8 -226 8 -226 0 0 -5 -4 -6 -8 -3 -5 3 -26 6 -48 7 l-40 3 6 48 c4 26 4 48 0
48 -3 0 -3 27 0 60 3 33 3 60 -1 60 -3 0 -3 20 1 45 4 25 4 48 0 50 -4 2 -4
25 0 50 4 25 4 48 0 50 -3 2 -3 29 0 60 3 31 3 58 -1 61 -5 3 -6 11 -3 19 8
19 10 325 3 325 -3 0 -3 19 0 43 4 23 4 61 1 85 -4 23 -4 42 -1 42 3 0 6 49 6
110 0 60 -4 110 -8 110 -5 0 -6 4 -3 8 6 11 8 67 4 160 -2 39 -1 72 2 72 3 0
4 20 2 44 l-4 43 -46 2 c-54 3 -47 3 -130 -1 -34 -2 -62 -1 -62 2 0 3 -26 4
-57 2 -32 -1 -76 -2 -98 -1 -22 0 -47 0 -55 0 -26 -2 -103 0 -109 2 -3 1 -23
1 -43 -1z"/>
<path d="M5121 3486 c-1 -22 -4 -43 -7 -47 -2 -4 -1 -10 4 -13 4 -3 5 -30 2
-61 -3 -31 -3 -58 0 -60 4 -2 4 -25 0 -50 -4 -25 -4 -48 0 -50 4 -2 4 -25 0
-50 -4 -25 -4 -48 0 -50 3 -2 3 -29 0 -60 -3 -31 -3 -58 0 -60 4 -2 4 -25 0
-50 -4 -25 -4 -48 0 -50 4 -2 4 -25 0 -50 -4 -25 -4 -48 0 -50 3 -2 3 -29 0
-60 -3 -31 -3 -58 0 -60 4 -2 4 -25 0 -50 -4 -25 -4 -48 0 -50 4 -2 4 -25 0
-50 -4 -25 -4 -48 0 -50 3 -2 3 -29 0 -60 -3 -31 -3 -58 0 -60 4 -2 4 -25 0
-50 -4 -25 -4 -48 0 -50 4 -2 4 -25 0 -50 -4 -25 -4 -48 0 -50 3 -2 3 -29 0
-60 -3 -31 -3 -58 0 -60 4 -2 4 -25 0 -50 -4 -25 -4 -48 0 -50 4 -2 4 -25 0
-50 -4 -25 -4 -48 0 -50 3 -2 3 -29 0 -60 -3 -31 -3 -58 0 -60 4 -2 4 -25 0
-50 -4 -25 -4 -48 0 -50 4 -2 4 -25 0 -50 -4 -25 -4 -48 0 -50 3 -2 3 -29 0
-60 -3 -31 -3 -58 1 -61 5 -3 6 -11 3 -19 -7 -17 -11 -325 -4 -325 3 0 6 -37
6 -83 2 -93 22 -147 76 -208 35 -38 90 -80 111 -83 7 -1 18 -5 25 -10 8 -4 44
-10 81 -13 51 -4 80 0 126 16 33 12 62 26 63 31 2 6 9 10 16 10 18 0 82 77
106 127 13 27 23 75 26 126 3 45 8 85 10 89 2 4 1 9 -4 12 -4 3 -5 30 -2 61 3
31 2 58 -2 61 -5 3 -6 10 -2 15 7 12 7 215 0 228 -4 5 -2 12 2 15 5 3 6 26 2
51 -4 25 -4 45 -1 45 3 0 5 26 4 57 -2 32 -3 78 -2 103 0 25 0 54 -1 65 -1 11
-1 27 -1 35 2 69 0 113 -4 121 -4 5 -3 9 2 9 4 0 7 26 5 57 -1 32 -2 72 -2 88
1 17 1 37 1 45 -1 40 0 110 2 158 1 28 0 52 -3 52 -3 0 -4 28 -2 62 1 35 2 86
1 113 0 67 0 62 1 132 1 34 -1 67 -4 72 -4 5 -2 12 2 15 5 3 6 26 2 51 -4 25
-4 45 -1 45 3 0 5 26 4 57 -2 32 -3 78 -2 103 0 25 0 54 -1 65 -1 11 -1 27 -1
35 1 42 1 110 0 117 -1 4 -1 13 1 18 1 6 1 35 0 65 0 30 0 71 1 90 0 19 1 42
0 50 -1 8 -1 33 -1 55 0 22 -3 45 -7 50 -9 11 -543 15 -543 4 0 -3 -19 -3 -43
1 l-43 6 -3 -40z"/>
</g>
</svg>
